<?xml version="1.0" encoding="utf-8"?>
<!-- Generator: Adobe Illustrator 28.2.0, SVG Export Plug-In . SVG Version: 6.00 Build 0)  -->
<svg version="1.1" id="Camada_1" xmlns="http://www.w3.org/2000/svg" xmlns:xlink="http://www.w3.org/1999/xlink" x="0px" y="0px"
	 viewBox="0 0 1688 1838" style="enable-background:new 0 0 1688 1838;" xml:space="preserve">
<style type="text/css">
	.st0{fill:#D9D9D6;}
	.st1{fill:#888B8D;}
	.st2{fill:#09B115;}
</style>
<g>
	<path d="M968.7,1179.6c-18.2-2.1-36.3-4.8-54-8.2v276.1h54V1179.6z"/>
	<path d="M1099.9,518.4v501.8c18.2,0.6,36.2,2,54,3.9V518.4H1099.9z"/>
	<rect x="1513.8" y="408.5" width="95.8" height="54"/>
	<path d="M1099.9,1185.4v545c18.3-0.6,36.3-2.2,54-4.6v-535.3C1136.2,1187.9,1118.2,1186.2,1099.9,1185.4z"/>
	<polygon points="839.2,28.9 830.1,38.1 826.8,38.1 70.1,38.1 70.1,92.1 776.1,92.1 644.9,223.2 70.1,223.2 70.1,277.2 667.2,277.2 
		877.4,67.1 	"/>
	<path d="M729.5,635.7v265.7c11.9,12.3,25.5,24.1,40.7,35.1c4.4,3.2,8.8,6.2,13.3,9.2V591.1c-4.5,3-8.9,6-13.2,9.2
		C755.1,611.3,741.5,623.2,729.5,635.7z"/>
	<path d="M544.2,613.2c2.7-5.1,5.5-10.2,8.4-15.3c12.9-22.2,28.1-43.3,45.6-63.2V408.4H67.1v54h477.1V613.2z"/>
	<path d="M1044,38.1L729.5,350.5V431c17.4-9.6,35.4-18.3,54-26.2V373l282.7-280.9h589.6v-54H1044z"/>
	<path d="M552.7,939.6c-3-5.1-5.8-10.2-8.5-15.4v837.7h54v-759.6C580.7,982.6,565.5,961.6,552.7,939.6z"/>
	<path d="M968.7,1013.2V523.8c-18.4,2.6-36.5,6.1-54,10.5v468.1C932.2,1006.9,950.3,1010.5,968.7,1013.2z"/>
	<path d="M955.2,359.2c26.9-3.4,54.3-5.3,82-5.6l76.4-76.4h505.5v-54h-527.9L955.2,359.2z"/>
	<path d="M783.5,1131.8c-18.6-7.9-36.7-16.6-54-26.2v488h54V1131.8z"/>
</g>
<g>
	<rect x="569.9" y="1746.1" width="583.8" height="54"/>
</g>
<g>
	<g>
		<circle class="st0" cx="64.9" cy="65.1" r="46.9"/>
		<path d="M64.9,129.9C29.1,129.9,0,100.8,0,65.1S29.1,0.2,64.9,0.2s64.9,29.1,64.9,64.9S100.7,129.9,64.9,129.9z M64.9,36.2
			C49,36.2,36,49.1,36,65.1C36,81,49,93.9,64.9,93.9s28.9-13,28.9-28.9C93.8,49.1,80.8,36.2,64.9,36.2z"/>
	</g>
	<g>
		<circle class="st0" cx="849.1" cy="65.1" r="46.9"/>
		<path d="M849.1,129.9c-35.8,0-64.9-29.1-64.9-64.9s29.1-64.9,64.9-64.9c35.8,0,64.9,29.1,64.9,64.9S884.9,129.9,849.1,129.9z
			 M849.1,36.2c-15.9,0-28.9,13-28.9,28.9c0,15.9,13,28.9,28.9,28.9c15.9,0,28.9-13,28.9-28.9C878,49.1,865,36.2,849.1,36.2z"/>
	</g>
	<g>
		<circle class="st0" cx="64.9" cy="250.2" r="46.9"/>
		<path d="M64.9,315.1C29.1,315.1,0,286,0,250.2s29.1-64.9,64.9-64.9s64.9,29.1,64.9,64.9S100.7,315.1,64.9,315.1z M64.9,221.4
			c-15.9,0-28.9,13-28.9,28.9s13,28.9,28.9,28.9s28.9-13,28.9-28.9S80.8,221.4,64.9,221.4z"/>
	</g>
	<g>
		<circle class="st0" cx="64.9" cy="435.4" r="46.9"/>
		<path d="M64.9,500.3C29.1,500.3,0,471.2,0,435.4s29.1-64.9,64.9-64.9s64.9,29.1,64.9,64.9S100.7,500.3,64.9,500.3z M64.9,406.5
			c-15.9,0-28.9,13-28.9,28.9s13,28.9,28.9,28.9s28.9-13,28.9-28.9S80.8,406.5,64.9,406.5z"/>
	</g>
	<g>
		<circle class="st0" cx="571.4" cy="1773.1" r="46.9"/>
		<path d="M571.4,1838c-35.8,0-64.9-29.1-64.9-64.9s29.1-64.9,64.9-64.9s64.9,29.1,64.9,64.9S607.1,1838,571.4,1838z M571.4,1744.2
			c-15.9,0-28.9,13-28.9,28.9s13,28.9,28.9,28.9s28.9-13,28.9-28.9S587.3,1744.2,571.4,1744.2z"/>
	</g>
	<g>
		<circle class="st0" cx="1126.9" cy="1773.1" r="46.9"/>
		<path d="M1126.9,1838c-35.8,0-64.9-29.1-64.9-64.9s29.1-64.9,64.9-64.9s64.9,29.1,64.9,64.9S1162.7,1838,1126.9,1838z
			 M1126.9,1744.2c-15.9,0-28.9,13-28.9,28.9s13,28.9,28.9,28.9s28.9-13,28.9-28.9S1142.8,1744.2,1126.9,1744.2z"/>
	</g>
	<g>
		<circle class="st0" cx="1623.1" cy="435.4" r="46.9"/>
		<path d="M1623.1,500.3c-35.8,0-64.9-29.1-64.9-64.9s29.1-64.9,64.9-64.9s64.9,29.1,64.9,64.9S1658.9,500.3,1623.1,500.3z
			 M1623.1,406.5c-15.9,0-28.9,13-28.9,28.9s13,28.9,28.9,28.9s28.9-13,28.9-28.9S1639,406.5,1623.1,406.5z"/>
	</g>
	<g>
		<circle class="st0" cx="1623.1" cy="250.2" r="46.9"/>
		<path d="M1623.1,315.1c-35.8,0-64.9-29.1-64.9-64.9s29.1-64.9,64.9-64.9s64.9,29.1,64.9,64.9S1658.9,315.1,1623.1,315.1z
			 M1623.1,221.4c-15.9,0-28.9,13-28.9,28.9s13,28.9,28.9,28.9s28.9-13,28.9-28.9S1639,221.4,1623.1,221.4z"/>
	</g>
	<g>
		<circle class="st0" cx="941.7" cy="1460.1" r="46.9"/>
		<path d="M941.7,1525c-35.8,0-64.9-29.1-64.9-64.9s29.1-64.9,64.9-64.9s64.9,29.1,64.9,64.9S977.5,1525,941.7,1525z M941.7,1431.2
			c-15.9,0-28.9,13-28.9,28.9s13,28.9,28.9,28.9s28.9-13,28.9-28.9S957.6,1431.2,941.7,1431.2z"/>
	</g>
	<g>
		<circle class="st0" cx="1623.1" cy="65.1" r="46.9"/>
		<path d="M1623.1,129.9c-35.8,0-64.9-29.1-64.9-64.9s29.1-64.9,64.9-64.9s64.9,29.1,64.9,64.9S1658.9,129.9,1623.1,129.9z
			 M1623.1,36.2c-15.9,0-28.9,13-28.9,28.9c0,15.9,13,28.9,28.9,28.9s28.9-13,28.9-28.9C1652,49.1,1639,36.2,1623.1,36.2z"/>
	</g>
	<g>
		<circle class="st0" cx="756.5" cy="1616.6" r="46.9"/>
		<path d="M756.5,1681.5c-35.8,0-64.9-29.1-64.9-64.9s29.1-64.9,64.9-64.9s64.9,29.1,64.9,64.9S792.3,1681.5,756.5,1681.5z
			 M756.5,1587.7c-15.9,0-28.9,13-28.9,28.9s13,28.9,28.9,28.9s28.9-13,28.9-28.9S772.5,1587.7,756.5,1587.7z"/>
	</g>
</g>
<g>
	<g>
		<path class="st1" d="M1612,455.4h-164c-11,0-20-9-20-20s9-20,20-20h164c11,0,20,9,20,20S1623,455.4,1612,455.4z"/>
	</g>
	<g>
		<path class="st1" d="M746.9,1793.1h-164c-11,0-20-9-20-20s9-20,20-20h164c11,0,20,9,20,20S757.9,1793.1,746.9,1793.1z"/>
	</g>
</g>
<path class="st2" d="M1080.5,1810.7l-1.7,0l-2.3-0.1H680.7v-75h397.5l3.1,0.1c113.7-0.2,220.1-32.4,299.7-91
	c76.3-56.1,118.4-129.6,118.4-207c0-77.1-42-150.2-118.3-206c-79.6-58.2-186.5-90.8-301-92c-4.8,0-11.8-0.2-18.5-0.4
	c-6.5-0.1-13.2-0.3-17.5-0.3c-130-1.3-252.3-38.8-344.4-105.5c-46.2-33.5-82.6-72.8-108.2-116.7c-27.2-46.6-41-96.5-41-148.1
	c0-51.6,13.8-101.5,40.9-148.4c25.6-44.2,62-83.6,108.2-117.3c92.2-67.2,214-104.4,343.2-104.7l1.9-0.2h469.1v75h-465.9l-1.9,0.2
	h-1.6c-114,0-220.8,32.1-300.7,90.3c-76.3,55.6-118.3,128.4-118.3,205c0,76.3,42,148.7,118.2,204c79.6,57.7,186.5,90.1,301.1,91.3
	c4.7,0,11.4,0.2,18.5,0.4c6.5,0.1,13.3,0.3,17.5,0.3c130.1,1.3,252.4,39.1,344.5,106.4c46.2,33.8,82.6,73.3,108.2,117.5
	c27.1,46.9,40.9,97.1,40.9,149c0,51.9-13.8,102.2-40.9,149.3c-25.6,44.5-62,84.2-108.1,118.1
	C1332.9,1773.3,1210.3,1810.7,1080.5,1810.7z"/>
</svg>
